<?xml version="1.0" encoding="UTF-8" standalone="no"?>
<!-- Created with Inkscape (http://www.inkscape.org/) -->

<svg
   xmlns:dc="http://purl.org/dc/elements/1.1/"
   xmlns:cc="http://creativecommons.org/ns#"
   xmlns:rdf="http://www.w3.org/1999/02/22-rdf-syntax-ns#"
   xmlns:svg="http://www.w3.org/2000/svg"
   xmlns="http://www.w3.org/2000/svg"
   xmlns:xlink="http://www.w3.org/1999/xlink"
   xmlns:sodipodi="http://sodipodi.sourceforge.net/DTD/sodipodi-0.dtd"
   xmlns:inkscape="http://www.inkscape.org/namespaces/inkscape"
   width="134.88138mm"
   height="145.01414mm"
   viewBox="0 0 134.88138 145.01416"
   version="1.1"
   id="svg8"
   inkscape:version="0.92.4 (5da689c313, 2019-01-14)"
   inkscape:export-filename="C:\Users\Brandon\Desktop/bitmap.png"
   inkscape:export-xdpi="958.99548"
   inkscape:export-ydpi="958.99548">
  <defs
     id="defs2">
    <linearGradient
       inkscape:collect="always"
       id="linearGradient4778">
      <stop
         style="stop-color:#1b8045;stop-opacity:1"
         offset="0"
         id="stop4774" />
      <stop
         style="stop-color:#5dba88;stop-opacity:1"
         offset="1"
         id="stop4776" />
    </linearGradient>
    <linearGradient
       inkscape:collect="always"
       id="linearGradient4663-9">
      <stop
         style="stop-color:#198847;stop-opacity:1"
         offset="0"
         id="stop4659" />
      <stop
         style="stop-color:#267244;stop-opacity:1"
         offset="1"
         id="stop4661" />
    </linearGradient>
    <linearGradient
       inkscape:collect="always"
       id="linearGradient4655">
      <stop
         style="stop-color:#64af84;stop-opacity:1"
         offset="0"
         id="stop4651" />
      <stop
         style="stop-color:#1c884a;stop-opacity:1"
         offset="1"
         id="stop4653" />
    </linearGradient>
    <linearGradient
       inkscape:collect="always"
       id="linearGradient4647">
      <stop
         style="stop-color:#0c703a;stop-opacity:1"
         offset="0"
         id="stop4643" />
      <stop
         style="stop-color:#3fa668;stop-opacity:1"
         offset="1"
         id="stop4645" />
    </linearGradient>
    <linearGradient
       inkscape:collect="always"
       id="linearGradient4639">
      <stop
         style="stop-color:#6cba8d;stop-opacity:1"
         offset="0"
         id="stop4635" />
      <stop
         style="stop-color:#418e64;stop-opacity:1"
         offset="1"
         id="stop4637" />
    </linearGradient>
    <linearGradient
       inkscape:collect="always"
       id="linearGradient4631">
      <stop
         style="stop-color:#1b7e43;stop-opacity:1"
         offset="0"
         id="stop4627" />
      <stop
         style="stop-color:#128843;stop-opacity:1"
         offset="1"
         id="stop4629" />
    </linearGradient>
    <linearGradient
       inkscape:collect="always"
       xlink:href="#linearGradient4631"
       id="linearGradient4633"
       x1="168.57143"
       y1="351.80539"
       x2="204.28572"
       y2="786.80542"
       gradientUnits="userSpaceOnUse" />
    <linearGradient
       inkscape:collect="always"
       xlink:href="#linearGradient4639"
       id="linearGradient4641"
       x1="206.42857"
       y1="318.94827"
       x2="205.71429"
       y2="784.66254"
       gradientUnits="userSpaceOnUse" />
    <linearGradient
       inkscape:collect="always"
       xlink:href="#linearGradient4647"
       id="linearGradient4649"
       x1="290"
       y1="457.51968"
       x2="285.71429"
       y2="779.66254"
       gradientUnits="userSpaceOnUse" />
    <linearGradient
       inkscape:collect="always"
       xlink:href="#linearGradient4655"
       id="linearGradient4657"
       x1="512.51654"
       y1="609.59052"
       x2="476.42859"
       y2="257.51968"
       gradientUnits="userSpaceOnUse" />
    <linearGradient
       inkscape:collect="always"
       xlink:href="#linearGradient4663-9"
       id="linearGradient4665"
       x1="504.28574"
       y1="324.66254"
       x2="519.14172"
       y2="621.85834"
       gradientUnits="userSpaceOnUse" />
    <linearGradient
       inkscape:collect="always"
       xlink:href="#linearGradient4778"
       id="linearGradient4780"
       x1="522.67725"
       y1="645.89996"
       x2="591.83368"
       y2="323.72668"
       gradientUnits="userSpaceOnUse" />
  </defs>
  <sodipodi:namedview
     id="base"
     pagecolor="#ffffff"
     bordercolor="#666666"
     borderopacity="1.0"
     inkscape:pageopacity="0.0"
     inkscape:pageshadow="2"
     inkscape:zoom="2.8284271"
     inkscape:cx="223.06979"
     inkscape:cy="96.893348"
     inkscape:document-units="mm"
     inkscape:current-layer="layer1"
     showgrid="false"
     inkscape:pagecheckerboard="true"
     inkscape:window-width="1920"
     inkscape:window-height="1017"
     inkscape:window-x="-8"
     inkscape:window-y="-8"
     inkscape:window-maximized="1"
     fit-margin-top="10"
     fit-margin-left="10"
     fit-margin-right="10"
     fit-margin-bottom="10"
     showguides="false" />
  <metadata
     id="metadata5">
    <rdf:RDF>
      <cc:Work
         rdf:about="">
        <dc:format>image/svg+xml</dc:format>
        <dc:type
           rdf:resource="http://purl.org/dc/dcmitype/StillImage" />
        <dc:title></dc:title>
      </cc:Work>
    </rdf:RDF>
  </metadata>
  <g
     inkscape:label="Layer 1"
     inkscape:groupmode="layer"
     id="layer1"
     transform="translate(-34.234597,-71.329044)">
    <g
       id="g4762">
      <path
         sodipodi:nodetypes="ssssssscssssscccsssscss"
         transform="scale(0.26458333)"
         inkscape:connector-curvature="0"
         id="path3786"
         d="m 470.04301,777.718 c 0,-1.02625 -11.89448,-32.7757 -20.72314,-55.31544 -24.1766,-61.72336 -45.37591,-110.22683 -67.59315,-154.65139 -33.13338,-66.25196 -58.3502,-101.88812 -79.49346,-112.33941 -6.19254,-3.06103 -12.80044,-3.52998 -17.52344,-1.24362 -10.9444,5.29809 -17.74406,26.28844 -21.4071,66.08303 -3.30298,35.88307 -4.25512,80.72427 -3.73105,175.71428 0.26015,47.15464 1.90127,83.50154 1.50574,82.82652 -0.8522,-1.45437 -6.1389,-15.2161 -10.92887,-30.59989 -3.38122,-10.85937 -6.1617,-22.17037 -8.21915,-29.36948 -10.85434,-37.97985 -19.64965,-75.22442 -31.96463,-135.35715 -18.18668,-88.80357 -24.99015,-129.35883 -34.15078,-203.57142 -2.8407,-23.01332 -7.91383,-68.12919 -7.91383,-70.37861 v -1.77189 l 64.05048,0.18239 64.05048,0.18239 15.97354,22.83483 c 35.18225,50.29448 58.17527,82.61379 90.46949,127.16517 69.95725,96.50931 77.12528,106.89337 103.79028,150.35714 27.24432,44.40808 65.51377,113.46205 90.15587,162.67858 l 3.66574,7.32142 h -65.00651 c -44.78468,0 -65.00651,-0.23251 -65.00651,-0.74745 z"
         style="fill:url(#linearGradient4641);fill-opacity:1;stroke:#0d0000;stroke-width:0.71428573;stroke-opacity:0" />
      <path
         sodipodi:nodetypes="cssssssscccccssssssssscscc"
         transform="scale(0.26458333)"
         inkscape:connector-curvature="0"
         id="path3788"
         d="m 510.4458,615.44755 c -1.11703,-1.85179 -2.19184,-3.4211 -3.3016,-5.19798 -10.58331,-16.94526 -19.13674,-31.48953 -30.50585,-47.91429 -6.60312,-9.53943 -13.95382,-19.79358 -22.20209,-31.65909 -5.02046,-7.22217 -10.7467,-15.29662 -17.09817,-23.59885 -4.11256,-5.37568 -7.80448,-11.47756 -12.5332,-17.46878 C 368.8321,418.69188 295.46622,308.66094 296.0262,308.11922 c 0.17252,-0.1669 58.16886,77.77398 62.6462,83.37565 48.44608,60.61176 85.38136,95.69678 102.76084,97.61307 l 1.61035,0.0641 1.83603,-0.37541 1.47465,-0.63226 4.49328,6.25754 3.74781,5.37655 c 5.18967,7.44501 10.00297,14.8536 14.24963,22.23804 4.01221,6.97675 8.03651,13.64968 11.21504,20.44323 4.11944,8.80456 8.0554,16.84213 11.02561,25.0354 1.76578,4.87087 3.37788,9.83172 4.68141,14.57822 1.20122,4.37396 1.94837,8.62613 2.65597,12.59603 0.45555,2.55583 0.86991,6.45525 1.08366,10.3292 0.30705,5.56479 0.58206,11.70471 -0.18045,14.72678 -0.0975,0.38651 0.28794,1.55063 -0.15414,2.7736 -0.62275,1.72283 -1.58804,3.89402 -2.1168,3.62763 -0.45181,0.75822 -2.15327,-3.15738 -4.52278,-7.24558 -0.54914,-0.94744 -0.71952,-1.25815 -0.71952,-1.25815 z"
         style="fill:url(#linearGradient4657);fill-opacity:1;stroke-width:0.71428573" />
      <path
         sodipodi:nodetypes="ccscccsccssssssssccc"
         transform="scale(0.26458333)"
         inkscape:connector-curvature="0"
         id="path3790"
         d="m 519.14171,621.85831 c 0.29929,-1.66964 0.50838,-7.375 0.46464,-12.67857 -0.15885,-19.26514 -6.64113,-41.17 -19.9752,-67.5 -7.96457,-15.72718 -18.1863,-32.46789 -29.07452,-47.61706 l -4.20236,-5.89831 2.26812,-1.67982 c 6.16025,-5.8474 10.12291,-21.58487 12.12342,-49.44767 0.7325,-10.20211 1.36152,-66.64088 1.49875,-94.3741 l -0.3848,-11.68914 12.40468,-11.24345 c 6.45948,-5.85479 11.6378,-11.65373 11.78223,-11.5093 0.14443,0.14443 2.98382,11.61318 5.28555,24.19887 4.25001,23.23875 8.43938,44.52892 11.94528,64.3666 6.833,38.66364 11.75693,71.70051 14.28744,102.1268 2.77211,33.33128 2.94912,62.4478 0.0117,84.41437 -2.1408,16.00905 -6.09279,28.21003 -11.12816,35.52869 -0.99452,1.44549 -2.74748,3.65541 -4.78476,5.02048 -2.06482,1.38353 -4.05908,2.3987 -4.8294,2.40248 -0.29928,10e-4 2.00814,-2.75123 2.30742,-4.42087 z"
         style="fill:url(#linearGradient4665);fill-opacity:1;stroke-width:0.71428573" />
      <path
         sodipodi:nodetypes="ssccsssscccsss"
         transform="scale(0.26458333)"
         inkscape:connector-curvature="0"
         id="path3792"
         d="m 595.08223,768.79381 c -16.15272,-33.05047 -51.66132,-97.3834 -74.6877,-136.37364 l -3.38343,-6.18519 3.52922,-1.81503 c 5.18986,-3.19073 10.67974,-11.91763 13.51253,-23.23128 4.25854,-17.00788 5.33885,-30.21458 5.30686,-61.81651 -0.043,-42.50407 -6.12492,-86.15089 -17.82746,-152.45984 -2.73117,-15.47534 -13.67628,-73.70998 -15.07254,-77.36522 l -0.57586,-1.50752 48.36744,-0.28841 h 46.506 v 233.92857 c 0,128.66071 0.35514,237.84291 0.249,237.84291 -0.10612,0 -3.51377,-5.79708 -5.92406,-10.72884 z"
         style="fill:url(#linearGradient4780);fill-opacity:1;stroke:#000000;stroke-width:0.71428573;stroke-opacity:0" />
      <path
         sodipodi:nodetypes="csssssscssssccsscc"
         transform="scale(0.26458333)"
         inkscape:connector-curvature="0"
         id="path3794"
         d="m 259.23874,712.40564 c -0.90762,-51.43775 -0.25292,-123.96057 0.37711,-141.08304 2.62133,-71.24156 10.4421,-105.33738 22.39348,-116.13473 14.02779,-12.67327 39.58671,8.72764 68.24709,55.61157 14.86409,24.31534 32.74199,56.41433 49.9403,94.40326 18.37502,40.58811 37.76541,86.83322 56.76263,136.88914 1.95805,5.1593 4.94364,12.96828 7.50714,19.75874 2.90208,7.68731 5.11132,14.41599 5.31135,14.89515 2.10307,5.03754 -6.36403,-10.26192 -13.87997,-22.96237 -37.08458,-62.66566 -75.0709,-119.25019 -101.1107,-150.61476 -15.36793,-18.51044 -31.24492,-33.00329 -39.59238,-36.14075 -17.34394,-6.51885 -23.67815,6.96464 -25.84187,55.00903 -0.39808,8.83929 -0.72709,42.59275 -0.73113,75.00768 l -0.007,58.93625 -12.81708,10.52804 c -7.0494,5.79042 -14.60901,12.18543 -14.77942,12.18543 -0.17041,0 -0.20445,-4.19154 -0.47994,-12.93261 -1.69022,-19.25161 -1.05064,-37.89912 -1.29961,-53.35603 z"
         style="fill:url(#linearGradient4649);fill-opacity:1;stroke-width:0.71428573" />
      <path
         sodipodi:nodetypes="ccssssssscscc"
         transform="scale(0.26458333)"
         inkscape:connector-curvature="0"
         id="path3796"
         d="m 167.26425,550.42974 0.6359,-242.68621 2.88115,29.16835 c 1.48147,14.99814 3.72094,28.93767 5.15807,42.05087 3.57984,32.6647 8.02878,59.93688 11.78147,85.93719 3.11668,21.59377 7.07601,42.21573 11.23711,63.74588 0.69641,3.60335 1.91822,9.33715 2.90629,14.29681 5.92154,29.72322 16.05832,77.7584 19.39177,92.66927 11.19733,50.08673 24.68731,100.78905 35.71342,131.24462 1.84899,5.10714 3.35424,9.82332 4.04871,11.72895 0.35686,1.18148 -4.05299,-0.12002 -47.67753,-0.12002 h -46.15473 z"
         style="fill:url(#linearGradient4633);fill-opacity:1;stroke-width:0.71428573" />
    </g>
    <path
       style="fill:none;stroke:#6ac18a;stroke-width:0.26458332px;stroke-linecap:butt;stroke-linejoin:miter;stroke-opacity:1"
       d="m 133.84843,81.502138 c 18.33616,80.825712 2.94409,84.189202 2.94409,84.189202"
       id="path4782"
       inkscape:connector-curvature="0"
       sodipodi:nodetypes="cc" />
    <path
       style="fill:none;stroke:#6ac18a;stroke-width:0.26458332px;stroke-linecap:butt;stroke-linejoin:miter;stroke-opacity:1"
       d="m 78.31696,81.520323 c 6.292509,8.670866 11.719039,17.210329 17.066354,24.723927 8.238116,11.5755 15.803686,21.70183 22.040506,30.76459 4.90864,7.13276 9.56602,13.38699 13.37958,19.13397 2.26826,3.41821 3.98506,6.80766 5.90119,9.77879 4.70752,7.29941 8.13257,13.41642 10.82348,18.42919 1.71398,3.19289 3.17972,5.8551 4.4397,8.1722 6.45288,11.86679 6.79705,13.44599 6.79705,13.44599"
       id="path4784"
       inkscape:connector-curvature="0"
       sodipodi:nodetypes="cssssssc" />
    <path
       style="fill:none;stroke:#6ac18a;stroke-width:0.26458332px;stroke-linecap:butt;stroke-linejoin:miter;stroke-opacity:1"
       d="m 44.423581,81.423808 c 0.89257,6.080482 1.349648,11.823939 1.978106,17.3142 1.060391,9.263662 2.181107,17.745392 3.590136,25.464012 7.637043,41.8355 12.689355,62.36704 15.760694,72.36683 1.135421,3.69675 1.974057,5.93176 2.4695,7.31943 0.878168,2.45963 0.848601,2.18502 0.848601,2.18502"
       id="path4786"
       inkscape:connector-curvature="0"
       sodipodi:nodetypes="cssssc" />
    <path
       style="fill:none;stroke:#6ac18a;stroke-width:0.26458332px;stroke-linecap:butt;stroke-linejoin:miter;stroke-opacity:1"
       d="m 69.070618,206.0733 c -1.107195,-18.08855 -0.791802,-32.89088 -0.665449,-44.77427 0.245149,-23.05602 1.724787,-34.87752 5.294863,-39.67288 2.173419,-2.91935 3.939698,-2.62032 6.883774,-0.79511 8.878228,5.50415 21.009284,28.63538 30.104174,49.52733 8.07513,18.54947 13.67756,35.41285 13.67756,35.41285"
       id="path4788"
       inkscape:connector-curvature="0"
       sodipodi:nodetypes="cssssc" />
  </g>
</svg>
